<svg xmlns="http://www.w3.org/2000/svg" viewBox="0 0 48 48">
  <circle cx="24" cy="24" r="24" fill="#efeafa"/>
  <path d="M24 13c-2.6-4.2-7-5-9.6-3.2-2.9 2-3 6.3-.4 9.2 2 2.2 6 4.4 10 9 4-4.6 8-6.8 10-9 2.6-2.9 2.5-7.2-.4-9.2C30.9 8 26.6 8.8 24 13Z" fill="#6d5ba6"/>
  <path d="M24 18c-1.8-2.6-4.6-3-6.2-1.8-1.7 1.3-1.7 4-.1 5.8 1.3 1.4 3.8 2.8 6.3 5.6 2.5-2.8 5-4.2 6.3-5.6 1.6-1.8 1.6-4.5-.1-5.8-1.6-1.2-4.4-.8-6.2 1.8Z" fill="#79a98f"/>
  <path d="M24 11v24" stroke="#6d5ba6" stroke-width="1.5" stroke-linecap="round"/>
</svg>
