<?xml version="1.0" encoding="UTF-8" standalone="no"?>
<svg
   version="1.1"
   id="Layer_1"
   x="0px"
   y="0px"
   width="1152"
   viewBox="0 0 1152 1071"
   enable-background="new 0 0 1254 1254"
   xml:space="preserve"
   sodipodi:docname="file (2).svg"
   height="1071"
   inkscape:version="1.1.2 (0a00cf5339, 2022-02-04)"
   xmlns:inkscape="http://www.inkscape.org/namespaces/inkscape"
   xmlns:sodipodi="http://sodipodi.sourceforge.net/DTD/sodipodi-0.dtd"
   xmlns="http://www.w3.org/2000/svg"
   xmlns:svg="http://www.w3.org/2000/svg"><defs
   id="defs53" /><sodipodi:namedview
   id="namedview51"
   pagecolor="#ffffff"
   bordercolor="#666666"
   borderopacity="1.0"
   inkscape:pageshadow="2"
   inkscape:pageopacity="0.0"
   inkscape:pagecheckerboard="0"
   showgrid="false"
   inkscape:zoom="0.37314388"
   inkscape:cx="351.07101"
   inkscape:cy="968.79519"
   inkscape:window-width="1551"
   inkscape:window-height="970"
   inkscape:window-x="26"
   inkscape:window-y="23"
   inkscape:window-maximized="0"
   inkscape:current-layer="Layer_1" />

<path
   fill="#d5a949"
   opacity="1"
   stroke="none"
   d="m 705.31042,694.29755 c 34.12531,-14.51001 69.07178,-16.19007 104.73218,-9.67975 19.32154,3.52746 38.56055,7.52838 57.92896,10.76391 5.44641,0.90985 11.31201,0.44605 16.81811,-0.4339 6.39356,-1.02185 8.16584,-6.72241 3.79151,-11.4953 -2.3133,-2.5241 -5.30512,-4.57739 -8.3028,-6.29992 -30.47436,-17.51087 -63.35663,-27.48596 -98.224,-31.31561 -29.28137,-3.21619 -57.72253,1.5899 -86.00085,8.43408 -2.4347,0.58929 -5.06561,0.36773 -7.60541,0.52288 0.80554,-2.52966 1.1131,-5.37646 2.49176,-7.54101 18.86652,-29.62091 46.37073,-45.76733 80.7522,-50.17194 34.48462,-4.4179 67.66003,2.48938 99.93841,14.03302 43.0531,15.39679 81.66611,38.16681 113.84171,71.05646 4.1646,4.25714 7.9021,9.04529 11.2057,14.00788 6.3498,9.53851 5.8692,17.05694 -3.1542,24.15466 -8.1497,6.41034 -17.1879,12.20349 -26.6832,16.30139 -39.35869,16.98602 -79.72276,16.55725 -120.21934,4.48877 -16.90217,-5.03699 -33.41932,-11.354 -50.17304,-16.90314 -37.86481,-12.54162 -70.2395,-1.74628 -98.47882,24.22602 -35.43854,32.59375 -52.5387,73.78027 -55.07471,121.41461 -1.46393,27.49664 -1.00299,54.95593 3.22248,82.20764 5.83227,37.61487 24.53167,66.3868 58.9779,84.0098 1.92706,0.9859 4.00482,1.7935 5.6828,3.1056 0.98902,0.7733 2.00043,2.5307 1.76532,3.5643 -0.22363,0.9831 -1.96063,1.891 -3.20642,2.2957 -1.20886,0.3926 -2.63916,0.1127 -3.97223,0.1126 -37.3277,0 -74.65546,-0.01 -111.98315,-0.014 -6.56928,0 -7.02192,-0.759 -6.86542,-7.1841 0.42163,-17.3205 0.52032,-34.6485 0.88006,-51.97067 0.58075,-27.96881 1.11158,-55.94018 1.96491,-83.9013 0.57349,-18.78876 1.03082,-37.61707 2.66077,-56.33014 3.36462,-38.62751 18.72387,-72.20154 44.83545,-100.81122 19.3966,-21.25238 41.30163,-39.19251 68.45336,-50.64752 z"
   id="path4" />
<path
   fill="#d5a949"
   opacity="1"
   stroke="none"
   d="m 154.22934,671.23029 c 42.87887,-37.03467 91.42151,-61.86829 147.02499,-71.86188 25.89255,-4.65369 51.92344,-6.08289 77.56281,2.33343 25.76877,8.45881 45.88519,23.85425 59.06137,47.80652 0.7851,1.42713 0.79224,3.28223 1.16138,4.93817 -1.73529,0.12 -3.5437,0.61884 -5.19431,0.30023 -13.22153,-2.55236 -26.33932,-5.72808 -39.62906,-7.82415 -30.2875,-4.77698 -60.08725,-1.39496 -89.43918,6.75012 -20.59863,5.716 -40.63705,12.90088 -59.04535,24.01929 -2.40402,1.45196 -4.86868,3.03411 -6.75549,5.0664 -4.66153,5.02088 -3.33545,10.64582 3.31204,12.04932 5.41602,1.14349 11.34198,1.52368 16.77677,0.63013 19.70163,-3.23944 39.27292,-7.2616 58.9277,-10.79786 35.99405,-6.47595 71.29392,-4.78711 105.43955,9.46662 25.56762,10.67291 46.57226,27.71417 65.39764,47.58301 23.70917,25.02325 39.72992,54.32043 45.41339,88.45825 2.58411,15.5216 3.36798,31.42853 3.86078,47.19525 1.08771,34.79858 1.43317,69.62006 2.16071,104.43048 0.39312,18.80988 0.98895,37.61538 1.40966,56.42488 0.14307,6.3945 -0.50738,6.946 -6.69836,6.9468 -37.66449,0 -75.32898,0.01 -112.99344,0.015 -0.83328,10e-5 -1.77954,0.2539 -2.47714,-0.054 -1.62067,-0.7156 -3.12137,-1.7028 -4.67072,-2.5798 1.04489,-1.3017 1.83512,-3.0324 3.17908,-3.8302 5.5762,-3.3105 11.52655,-6.0181 16.96686,-9.5252 28.40301,-18.3102 43.09924,-45.30522 47.60937,-78.02384 4.83991,-35.10993 6.20429,-70.48829 0.24427,-105.53376 -8.35346,-49.11871 -32.818,-88.25067 -76.03248,-114.38855 -22.73181,-13.74914 -47.12704,-15.53991 -72.22814,-7.56219 -18.0896,5.74921 -35.83323,12.64947 -54.06101,17.88885 -43.45407,12.49024 -86.27701,11.66944 -127.39575,-9.03912 -7.03528,-3.54315 -13.55156,-8.52173 -19.46396,-13.78485 -7.06349,-6.28797 -8.15668,-13.48297 -2.54848,-21.0127 6.90999,-9.27752 15.17943,-17.54254 23.1245,-26.48455 z"
   id="path6" />
<path
   fill="#d5a848"
   opacity="1"
   stroke="none"
   d="m 779.53003,248.4989 c -10.82501,44.50516 -34.50214,80.0867 -70.57721,107.47995 -1.26947,0.96393 -3.15784,1.11289 -4.75775,1.64163 -0.17969,-1.69699 -0.77387,-3.47003 -0.47852,-5.07989 7.25952,-39.57163 11.59155,-79.44272 10.07251,-119.68344 -0.58667,-15.54135 -3.69873,-30.98737 -5.66186,-46.4766 -0.0209,-0.16488 -0.0258,-0.34745 -0.10157,-0.48738 -1.28894,-2.37834 -2.58795,-4.75122 -3.88476,-7.1253 -1.84876,1.92154 -4.18787,3.56314 -5.46942,5.80842 -11.34278,19.8718 -16.35053,41.77072 -19.69818,64.08803 -5.18219,34.54796 -5.09101,69.35787 -4.59327,104.17494 0.0216,1.5127 -0.7044,3.03611 -1.08209,4.55451 -1.53277,-0.65418 -3.35717,-0.97214 -4.55542,-2.01181 -26.96686,-23.39755 -41.38324,-53.84455 -48.39984,-88.10172 -9.58954,-46.81944 -2.81757,-91.49663 19.97681,-133.4386 14.18078,-26.09284 33.80932,-47.343952 59.89703,-62.159946 14.68958,-8.342693 22.29212,-7.468803 34.34351,4.349854 11.57708,11.353393 19.6817,25.128052 26.56543,39.635392 14.677,30.93134 23.55615,63.32641 22.5982,97.78925 -0.32178,11.57675 -2.651,23.09773 -4.1936,35.04271 z"
   id="path8" />
<path
   fill="#d5a848"
   opacity="1"
   stroke="none"
   d="m 493.85474,145.13544 c 13.52948,30.08647 19.41595,61.33049 16.87091,93.75451 -3.2779,41.76172 -16.25476,79.78379 -46.61969,110.25327 -2.58216,2.59103 -5.35004,5.01529 -8.19428,7.31586 -0.89502,0.72393 -2.63409,1.39669 -3.42114,0.99218 -0.84326,-0.43344 -1.43665,-2.17056 -1.41943,-3.32797 0.11401,-7.65649 0.5849,-15.30896 0.63836,-22.96481 0.23401,-33.49594 -0.1853,-66.96833 -6.6477,-100.00737 -3.20764,-16.39896 -7.72525,-32.42525 -16.33249,-46.94911 -1.23853,-2.08989 -3.56867,-3.53286 -5.39365,-5.2752 -1.26657,2.21295 -3.22461,4.2927 -3.68106,6.66173 -2.07388,10.76418 -4.42663,21.54697 -5.40225,32.43744 -3.58533,40.02243 -0.58554,79.81256 5.33713,119.44287 0.73751,4.93497 1.60513,9.85422 2.18057,14.80771 0.20428,1.75854 -0.2814,3.59729 -0.60068,6.9678 -3.87683,-3.20984 -6.54159,-5.35772 -9.14346,-7.57931 -29.88886,-25.52048 -51.33124,-56.61554 -61.82651,-94.73541 -9.45181,-34.32972 -7.65561,-68.47931 2.50842,-102.38732 7.77091,-25.92436 18.64261,-50.2818 36.69101,-70.811673 4.46009,-5.073281 9.81076,-9.489464 15.24366,-13.549965 6.88739,-5.147637 14.46362,-5.179268 22.13708,-1.255226 16.79709,8.58963 30.11029,21.232048 41.93665,35.662244 10.09124,12.31302 18.20788,25.83858 25.13855,40.54775 z"
   id="path10" />
<path
   fill="#d5a849"
   opacity="1"
   stroke="none"
   d="m 255.18097,525.8197 c -24.78888,-6.78595 -49.12363,-13.73285 -73.63905,-19.96939 -6.6567,-1.69342 -13.85199,-1.4855 -20.81325,-1.68051 -3.85291,-0.10794 -7.98244,0.73099 -9.53539,4.98819 -1.54828,4.24442 0.94467,7.86178 4.02094,10.01138 8.43266,5.89252 16.91314,11.90222 26.02757,16.59839 26.30054,13.55103 54.73212,20.65521 83.61615,26.14307 1.7966,0.34137 3.67206,0.4754 5.36212,1.10498 1.37476,0.51214 2.52643,1.62311 3.77701,2.4685 -0.9917,0.97644 -1.81097,2.42749 -3.00043,2.85968 -27.28415,9.91352 -54.85879,18.35022 -84.19702,19.93439 -45.19202,2.44006 -84.274,-11.4176 -117.04712,-42.60657 -14.21813,-13.53088 -26.33854,-28.76373 -34.29041,-46.90042 -2.589539,-5.90622 -5.126572,-12.01034 -3.383378,-18.79587 1.87867,-7.31286 7.201818,-11.88635 13.018128,-15.85806 21.42364,-14.62924 45.30201,-23.04123 70.77804,-27.00491 50.73572,-7.89371 96.59854,6.44662 139.81174,31.62241 28.85409,16.81024 52.30426,39.43844 69.6668,68.11154 1.44846,2.39202 1.97379,5.34301 2.92801,8.0343 -2.98202,-0.0925 -6.13513,0.41748 -8.91885,-0.37317 -21.30563,-6.05133 -42.53937,-12.35584 -64.18161,-18.68793 z"
   id="path12" />
<path
   fill="#d5a848"
   opacity="1"
   stroke="none"
   d="m 1036.5366,442.41321 c 17.4157,5.14209 33.6113,11.97378 48.1309,22.36798 12.7984,9.16202 15.5444,17.37933 9.2812,31.8985 -12.9518,30.02453 -34.3707,52.93304 -61.9288,69.9834 -24.9657,15.44653 -52.557,22.37207 -81.8464,22.04614 -20.94315,-0.23303 -41.34892,-4.24243 -61.32322,-10.40631 -9.69775,-2.99262 -19.33575,-6.18927 -28.92517,-9.5119 -1.47339,-0.51056 -2.53784,-2.20136 -3.79138,-3.34632 1.45068,-0.86365 2.80408,-2.19745 4.36658,-2.52087 25.28161,-5.23371 50.68145,-10.21735 74.26641,-21.15412 11.12758,-5.16009 21.63558,-11.68365 32.27898,-17.84069 2.5341,-1.46601 4.9797,-3.61609 6.5664,-6.04035 1.5959,-2.43829 3.5241,-6.21502 2.656,-8.30325 -1.0082,-2.4249 -4.8396,-5.0116 -7.5525,-5.13254 -7.0838,-0.31583 -14.5026,-0.40491 -21.2957,1.33591 -26.59599,6.81552 -53.0319,14.26645 -79.46854,21.69052 -20.35383,5.71576 -40.61982,11.74469 -60.92524,17.63312 -0.47998,0.13922 -0.96679,0.38409 -1.44616,0.3742 -2.06879,-0.0428 -4.13611,-0.16235 -6.20392,-0.2539 0.4649,-1.9748 0.47845,-4.21558 1.46203,-5.88471 15.97315,-27.10553 38.27912,-48.08816 64.21057,-65.37823 32.28894,-21.52881 67.72223,-34.81592 106.42856,-38.47644 21.9103,-2.07206 43.5329,0.59485 65.0594,6.91986 z"
   id="path14" />
<path
   fill="#d5a848"
   opacity="1"
   stroke="none"
   d="m 372.32996,520.66431 c -28.31324,-23.81702 -56.36429,-47.39157 -84.37458,-71.01453 -6.23895,-5.26175 -12.43106,-10.58871 -18.42926,-16.11935 -1.53314,-1.4137 -2.24362,-3.71961 -3.33206,-5.61561 1.94412,-1.08663 3.9473,-3.19204 5.82211,-3.08337 8.051,0.46668 16.36399,0.51929 24.03153,2.67716 18.43197,5.18731 33.96478,16.08285 48.52264,28.08309 27.13227,22.36551 58.03974,36.805 91.83643,45.64853 31.11319,8.14133 56.7626,24.3285 74.72317,51.55628 11.40308,17.28686 18.93689,36.24481 23.75147,56.30798 5.37457,22.39698 8.24841,45.1546 9.05316,68.15424 0.82684,23.62713 1.43219,47.26239 2.00531,70.89721 0.0435,1.79255 -0.94305,3.61005 -1.45081,5.41596 -1.6217,-1.13983 -3.57104,-2.00092 -4.81475,-3.4624 -13.15931,-15.46302 -25.79151,-31.39795 -39.42768,-46.42371 -9.31628,-10.26568 -12.96771,-22.15002 -14.33068,-35.34436 -1.90577,-18.44769 -5.30604,-36.56311 -12.52851,-53.78808 -9.89746,-23.60468 -26.07696,-42.0478 -46.84125,-56.59516 -17.86685,-12.51745 -35.95117,-24.72455 -54.21624,-37.29388 z"
   id="path16" />
<path
   fill="#d4a848"
   opacity="1"
   stroke="none"
   d="m 676.0863,581.10504 c -18.7359,21.43433 -27.91284,46.63879 -32.04168,73.99677 -0.91877,6.08807 -1.70362,12.20941 -2.21582,18.34332 -1.12647,13.48828 -7.76691,23.92194 -16.69129,33.73266 -12.98626,14.27595 -25.10589,29.33906 -37.68182,43.99201 -0.94769,1.10419 -2.58746,1.61432 -3.90552,2.40063 -0.5697,-1.43457 -1.6579,-2.87799 -1.63336,-4.30236 0.66162,-38.44733 1.51788,-76.90515 7.26062,-115.01221 3.71429,-24.64661 10.31018,-48.52728 22.2782,-70.58978 17.65258,-32.54163 44.77398,-53.02475 80.41546,-62.55637 27.81348,-7.43814 54.71558,-17.07361 78.24488,-34.25824 10.48382,-7.65683 20.45709,-16.02179 31.04748,-23.52115 13.56934,-9.60879 28.20258,-17.10055 45.11621,-18.77228 3.42731,-0.33877 6.99933,-0.23281 10.38074,0.36655 2.02673,0.35925 3.81335,2.07294 5.70789,3.17783 -1.02832,1.7594 -1.69538,3.92389 -3.14216,5.21396 -11.31408,10.08825 -22.65069,20.15884 -34.22229,29.94897 -22.88439,19.3613 -45.49261,39.08835 -69.05389,57.59616 -15.28668,12.008 -32.38965,21.67688 -48.05151,33.24329 -11.06958,8.17498 -21.08795,17.77337 -31.81214,27.00024 z"
   id="path18" />
<path
   fill="#d5a849"
   opacity="1"
   stroke="none"
   d="m 839.45044,258.44492 c 25.89618,-24.27793 56.47833,-37.74956 91.08148,-42.4088 5.04157,-0.67882 10.25048,-0.5226 15.35458,-0.24651 11.5027,0.62225 17.398,7.74297 20.3595,18.15282 3.6303,12.76088 3.2675,25.6761 1.6372,38.62913 -3.3316,26.46805 -12.5042,50.62729 -28.9835,71.77482 -17.81547,22.86236 -41.20189,37.51733 -68.79533,45.52999 -8.26154,2.39902 -16.88379,3.58902 -25.38037,5.11185 -1.39246,0.24954 -2.99085,-0.64938 -4.49402,-1.01752 0.58392,-1.44397 0.85889,-3.13907 1.79797,-4.29437 15.26001,-18.77389 29.93567,-37.99301 40.43097,-59.90494 3.54126,-7.39331 5.97626,-15.55542 7.44495,-23.63379 1.40961,-7.75344 -3.05688,-10.51199 -9.76642,-6.22006 -6.39947,4.0936 -12.46441,8.94666 -17.91205,14.25086 -23.68744,23.06363 -44.55188,48.58007 -64.21863,75.10748 -0.88397,1.19229 -2.43627,1.88916 -3.67718,2.81677 -0.73309,-1.32431 -2.09674,-2.64358 -2.1073,-3.97369 -0.28149,-35.31821 4.90234,-69.50705 23.9118,-100.05905 6.53662,-10.50568 15.31312,-19.61768 23.31635,-29.61499 z"
   id="path20" />
<path
   fill="#d5a848"
   opacity="1"
   stroke="none"
   d="m 308.33289,361.67969 c -16.17212,-19.95688 -32.34491,-39.44077 -51.91593,-55.72113 -3.4198,-2.84485 -7.28387,-5.33332 -11.29736,-7.23996 -4.56949,-2.17078 -7.9754,0.23297 -7.96079,5.35363 0.0275,9.61796 3.99112,18.14246 8.22028,26.45682 10.70569,21.04712 24.9375,39.72412 39.58844,58.10074 0.10385,0.13022 0.24948,0.24091 0.31244,0.38776 0.73474,1.71463 1.4574,3.43445 2.18323,5.15289 -1.70759,0.27646 -3.52851,1.08145 -5.10428,0.74344 -10.05927,-2.15778 -20.39862,-3.62656 -30.03263,-7.04849 -56.54861,-20.08557 -86.1192,-61.61368 -93.2622,-120.06021 -1.17174,-9.58756 -0.85624,-19.70612 0.82005,-29.21834 3.28632,-18.64847 12.84889,-25.25232 31.84256,-23.3037 40.65437,4.17084 75.41023,20.71535 103.48592,50.58506 20.35366,21.65423 32.14767,47.73913 36.42199,76.85308 2.2067,15.03061 1.81079,30.448 2.43497,45.69702 0.0486,1.18598 -1.13568,2.42234 -1.74695,3.63529 -1.16028,-0.74906 -2.6564,-1.24835 -3.42819,-2.28629 -6.85248,-9.21524 -13.57678,-18.52588 -20.56155,-28.08761 z"
   id="path22" />
<path
   fill="#d5a848"
   opacity="1"
   stroke="none"
   d="m 515.8288,402.922 c 6.02307,-14.04972 15.11615,-24.75467 29.14361,-30.52164 21.969,-9.03186 45.75885,-2.50967 60.36756,16.31067 15.71655,20.24753 16.5885,50.24142 1.80383,70.49603 -11.42945,15.6579 -26.93237,24.11218 -46.39362,22.37204 -21.62018,-1.93304 -36.60492,-13.87481 -44.86938,-34.01294 -6.03967,-14.71722 -5.88269,-29.49591 -0.052,-44.64416 z"
   id="path24" />
<path
   fill="#d5a949"
   opacity="1"
   stroke="none"
   d="m 560.3551,19.046284 c 30.06116,-2.750922 52.67206,19.266285 56.50727,46.332569 4.057,28.632286 -14.03382,55.142207 -41.08899,61.060337 -22.10962,4.83634 -44.49225,-6.61834 -55.18982,-28.244404 -13.92347,-28.147346 -2.03595,-62.962593 25.93036,-75.34227 4.19751,-1.858105 8.90832,-2.556877 13.84118,-3.806232 z"
   id="path26" />
<path
   fill="#d5a94a"
   opacity="1"
   stroke="none"
   d="m 756.84582,788.14111 c -3.95446,-3.3468 -7.73382,-6.36145 -11.27355,-9.63519 -1.20545,-1.11475 -1.80793,-2.88147 -2.68592,-4.35022 1.36682,-0.76703 2.64618,-1.86749 4.11328,-2.25238 38.50238,-10.10138 75.92377,5.83337 95.03284,40.75635 3.97296,7.26086 7.01788,15.06354 10.06628,22.78406 1.9491,4.93646 0.76423,6.30572 -4.54333,6.3388 -23.98499,0.14978 -44.52216,-8.36883 -61.70978,-24.95312 -9.69946,-9.35895 -19.1618,-18.96369 -28.99982,-28.6883 z"
   id="path28" />
<path
   fill="#d4a849"
   opacity="1"
   stroke="none"
   d="m 303.9809,839.04797 c -8.13111,0.97284 -15.85334,1.95032 -23.59769,2.69971 -3.78601,0.36639 -5.23642,-1.59405 -4.14374,-5.25623 15.70746,-52.64349 58.5972,-76.45544 106.14752,-64.41967 3.02588,0.76593 4.88584,2.19055 1.90613,5.03552 -15.63852,14.93188 -31.19836,29.95178 -47.09393,44.60663 -9.32294,8.59527 -20.5412,14.04034 -33.21829,17.33404 z"
   id="path30" />
<path
   fill="#d5a849"
   opacity="1"
   stroke="none"
   d="m 745.13965,412.1326 c -6.46716,28.69733 -25.18549,45.36249 -51.50812,54.7457 -6.10858,2.17752 -12.35388,4.0054 -18.61127,5.7207 -5.14648,1.41077 -6.55328,-0.0334 -5.18866,-5.15689 8.09992,-30.41104 25.0625,-54.17707 52.8227,-69.63468 6.96881,-3.88043 14.2243,-7.27105 21.4757,-10.60955 4.28461,-1.9726 6.00471,-0.54789 5.17084,3.99209 -1.26098,6.866 -2.69757,13.69977 -4.16119,20.94263 z"
   id="path32" />
<path
   fill="#d4a849"
   opacity="1"
   stroke="none"
   d="m 452.53094,454.48605 c 1.59754,5.13538 3.18537,9.87226 4.4516,14.69364 0.81818,3.11523 -0.6441,4.50885 -3.81494,3.57986 -16.02298,-4.69415 -31.66821,-10.19812 -45.27612,-20.32721 -14.47431,-10.77395 -20.93936,-26.30105 -25.59036,-42.86233 -1.65845,-5.90543 -2.77314,-11.97544 -3.90158,-18.01413 -0.95649,-5.11853 0.43628,-6.21289 5.25878,-4.38422 32.60087,12.36209 57.00916,33.14661 68.87262,67.31439 z"
   id="path34" />
<path
   fill="#d6aa4c"
   opacity="1"
   stroke="none"
   d="m 993.2617,369.45429 c 8.6172,4.66857 12.188,11.62371 10.676,20.27365 -1.185,6.77987 -7.3148,12.57919 -14.8106,13.50872 -7.0457,0.87369 -12.859,-1.81475 -16.6165,-7.77237 -3.8563,-6.11431 -3.803,-12.76898 0.029,-18.86517 3.7097,-5.90204 9.3689,-8.77631 16.4915,-8.18365 1.3085,0.10888 2.5871,0.5747 4.2308,1.03882 z"
   id="path36" />
<path
   fill="#d4a849"
   opacity="1"
   stroke="none"
   d="m 139.63556,368.50217 c 7.6802,-0.63999 13.49333,2.11612 17.23219,8.33337 3.38048,5.62134 3.60846,11.67026 0.44757,17.57336 -3.60217,6.72721 -10.4759,9.85752 -18.56408,8.62348 -6.4414,-0.98273 -12.1261,-6.72534 -13.53988,-13.67777 -1.46167,-7.18786 1.80713,-14.88189 8.04247,-18.42181 1.84404,-1.04688 3.98808,-1.56531 6.38173,-2.43063 z"
   id="path38" />
<path
   fill="#d6aa4c"
   opacity="1"
   stroke="none"
   d="m 828.15832,164.23029 c 6.63038,-6.50222 13.51935,-7.88645 20.64936,-4.37568 6.70782,3.30288 10.14728,10.19947 9.16473,18.37677 -0.84179,7.00556 -6.12701,12.61034 -13.48663,14.30208 -6.16419,1.41696 -13.55988,-1.4245 -17.211,-6.61246 -4.49115,-6.3816 -4.25561,-14.22811 0.88354,-21.69071 z"
   id="path40" />
<path
   fill="#d5a94a"
   opacity="1"
   stroke="none"
   d="m 281.64331,191.65909 c -12.53186,-6.73632 -14.41962,-22.48484 -3.96945,-30.27573 6.42731,-4.79179 14.98843,-4.50488 21.2391,0.71179 6.01303,5.01836 7.875,14.32319 4.27408,21.35909 -3.66955,7.17003 -11.43478,10.74359 -19.2521,8.85676 -0.64692,-0.15614 -1.28882,-0.33302 -2.29163,-0.65191 z"
   id="path42" />
<path
   fill="#d5a94a"
   opacity="1"
   stroke="none"
   d="m 577.82294,205.71515 c -6.88391,6.79262 -14.78443,8.04292 -21.92401,3.72201 -6.41736,-3.8838 -9.77881,-12.86001 -7.50971,-20.05323 2.41919,-7.66898 9.55243,-12.7397 17.38294,-12.31191 12.1939,0.6662 21.68902,15.60045 12.05078,28.64313 z"
   id="path44" />
<path
   fill="#d6aa4c"
   opacity="1"
   stroke="none"
   d="m 1050.438,627.32788 c 6.8933,4.99146 9.6849,11.39887 7.7079,19.33295 -1.6532,6.63543 -6.0213,10.93536 -12.8419,12.48736 -6.8171,1.55121 -13.7717,-1.31909 -17.672,-7.29748 -3.9336,-6.0293 -3.539,-14.79236 0.9274,-20.59162 4.1557,-5.39563 11.8437,-7.72314 18.3676,-5.51873 1.0956,0.37005 2.1305,0.91937 3.511,1.58752 z"
   id="path46" />
<path
   fill="#d6aa4c"
   opacity="1"
   stroke="none"
   d="m 96.16293,627.66528 c 6.95085,4.85572 9.15471,11.51685 7.42836,18.99976 -1.55545,6.74213 -6.17618,11.18445 -13.3043,12.59686 -6.70345,1.32825 -13.88953,-1.79724 -17.47652,-7.77209 -3.95247,-6.58368 -3.33936,-14.83625 1.51895,-20.44593 5.02024,-5.79663 12.18297,-7.6806 18.85707,-4.93048 0.91725,0.37793 1.77823,0.8924 2.97644,1.55188 z"
   id="path48" />
<path
   style="fill:#000000;stroke:#ffffff;stroke-width:4.59957"
   d="m 417.43028,1042.8025 c -0.57045,-0.923 1.46203,-3.1534 4.5166,-4.9565 26.39034,-15.578 38.74818,-27.3787 48.89755,-46.693 11.93478,-22.71194 17.57223,-61.15103 15.88145,-108.2883 -2.32325,-64.76951 -20.71172,-106.98884 -60.44479,-138.77922 -16.90402,-13.52489 -29.56856,-20.31632 -44.40082,-23.81019 -18.76572,-4.42044 -32.22144,-2.55902 -67.79106,9.37797 -44.94377,15.08291 -53.18573,16.93333 -80.29487,18.02718 -32.5979,1.31532 -51.4799,-2.3656 -78.05909,-15.2171 -13.61873,-6.58489 -27.00639,-18.95233 -27.00639,-24.94833 0,-8.62695 21.51853,-32.87541 44.4211,-50.05656 29.08015,-21.81547 55.06747,-35.64421 87.16332,-46.3826 70.24843,-23.50317 124.51655,-17.83952 158.95021,16.58872 12.40203,12.40008 21.33391,26.26697 16.91897,26.26697 -1.28016,0 -11.71049,-2.01805 -23.1785,-4.48455 -28.85683,-6.20644 -64.75843,-6.52457 -90.5862,-0.80272 -39.61402,8.77605 -80.89693,26.20998 -85.69229,36.18818 -1.97211,4.10356 -1.88675,5.09721 0.68168,7.9353 4.48553,4.95645 19.08425,4.17727 55.6364,-2.96948 29.8342,-5.83325 33.73931,-6.21332 63.76182,-6.20574 30.03884,0.008 32.89321,0.28736 46.99736,4.60667 25.78285,7.89582 46.53532,19.6638 67.88139,38.4931 35.98765,31.74457 56.7138,68.12104 62.63924,109.93819 1.93634,13.66517 4.41243,89.23705 5.40245,164.88631 l 0.5507,42.0805 -60.90454,0.4417 c -39.14906,0.2839 -61.27502,-0.1577 -61.94169,-1.2365 z"
   id="path907" /><path
   style="fill:#000000;stroke:#ffffff;stroke-width:4.59957"
   d="m 163.2349,587.27339 c -19.18168,-2.75855 -28.01874,-4.79874 -40.76835,-9.41209 -35.19826,-12.73622 -73.89993,-49.181 -86.829282,-81.76583 -5.966586,-15.03712 -2.671976,-22.52412 14.983332,-34.04963 25.34124,-16.54293 58.01385,-25.63576 92.41564,-25.71938 32.45735,-0.0789 57.52593,6.09035 90.89396,22.36854 23.21035,11.32288 35.46403,19.14466 52.43757,33.47198 18.56992,15.67481 44.70042,50.27007 39.32547,52.06459 -0.90776,0.30307 -24.19814,-5.90236 -51.75642,-13.78985 -82.85944,-23.71531 -94.62852,-26.53535 -108.38495,-25.97056 -8.82195,0.36219 -12.51682,1.21681 -13.75023,3.1804 -3.22611,5.13597 0.12494,10.61416 10.95241,17.90456 22.66767,15.26271 49.92602,25.90473 86.85805,33.91053 11.61817,2.51848 21.38245,5.35462 21.69843,6.30252 0.72572,2.17716 -39.55731,14.82558 -58.01067,18.2147 -14.81972,2.72178 -41.72175,4.48938 -50.06496,3.28952 z"
   id="path946" /><path
   style="fill:#000000;stroke:#ffffff;stroke-width:4.59957"
   d="m 79.53695,656.3574 c -15.45606,-8.3877 -6.54289,-33.93739 10.53104,-30.18732 5.97884,1.31317 13.41255,9.73048 13.41255,15.18725 0,6.28004 -3.59956,12.60831 -8.66022,15.22528 -5.79763,2.99807 -9.44279,2.94436 -15.28337,-0.22521 z"
   id="path985" /><path
   style="fill:#000000;stroke:#ffffff;stroke-width:4.59957"
   d="m 277.51377,836.30485 c 0.60995,-2.63639 4.1919,-11.11513 7.9599,-18.84163 11.73451,-24.06233 32.39144,-40.76378 56.65489,-45.8064 14.4101,-2.99481 43.61164,-0.55013 42.1003,3.52454 -0.921,2.48306 -49.2765,47.39154 -56.03826,52.04357 -9.8944,6.80725 -23.50429,11.27933 -38.51707,12.65633 l -13.26875,1.21703 z"
   id="path1024" /><path
   style="fill:#000000;stroke:#ffffff;stroke-width:4.59957"
   d="m 137.14497,401.97781 c -4.80197,-1.82196 -9.92896,-7.70452 -11.01179,-12.6346 -2.1277,-9.68734 6.02217,-19.8761 15.89866,-19.8761 10.1956,0 18.66857,11.01165 15.90024,20.66427 -2.28211,7.95726 -13.77498,14.50696 -20.78711,11.84643 z"
   id="path1063" /><path
   style="fill:#000000;stroke:#ffffff;stroke-width:4.59957"
   d="m 269.27785,391.37786 c -51.28583,-11.63062 -87.5308,-44.13096 -102.38176,-91.80425 -11.78691,-37.83736 -9.25828,-73.0731 5.8029,-80.86154 12.12774,-6.2715 50.04566,0.74933 76.8546,14.23029 16.67722,8.38619 30.7467,19.01573 44.58196,33.68184 26.61684,28.21525 38.9893,62.92975 37.8992,106.33711 l -0.4777,19.02199 -10.92446,-15.04534 c -31.63945,-43.57439 -67.72181,-79.84937 -79.42537,-79.84937 -1.80346,0 -3.4282,1.68685 -4.06376,4.21912 -3.11638,12.41666 9.7344,38.53305 36.56698,74.31432 10.72457,14.30122 13.44308,19.30531 10.2956,18.95149 -0.69433,-0.0781 -7.32201,-1.51609 -14.72819,-3.19566 z"
   id="path1102" /><path
   style="fill:#000000;stroke:#ffffff;stroke-width:4.59957"
   d="m 281.9078,189.76869 c -10.92921,-5.47579 -13.36756,-17.60144 -5.18493,-25.78407 3.64266,-3.64267 6.51709,-4.92019 11.07042,-4.92019 4.55333,0 7.42775,1.27752 11.07042,4.92019 6.6175,6.6175 6.72894,14.97646 0.29132,21.85315 -6.12439,6.5421 -10.1873,7.4681 -17.24723,3.93092 z"
   id="path1141" /><path
   style="fill:#000000;stroke:#ffffff;stroke-width:4.59957"
   d="m 403.75492,342.16807 c -19.16328,-18.39751 -29.26466,-32.03988 -40.23358,-54.3372 -25.95877,-52.7683 -24.57027,-109.04305 4.15313,-168.32215 13.10697,-27.050039 32.64319,-49.351899 45.75442,-52.231608 11.61932,-2.55203 38.30474,17.042057 57.38573,42.136138 25.91343,34.07968 38.91721,72.2245 39.01844,114.45521 0.0796,33.17883 -5.93587,60.2382 -19.31169,86.87084 -9.11811,18.15509 -31.25258,45.26204 -36.95921,45.26204 -0.69171,0 -1.62933,-22.1554 -2.08358,-49.23423 -0.66972,-39.9231 -1.48897,-52.89501 -4.33192,-68.59127 -5.05376,-27.90246 -14.00896,-52.83748 -21.08529,-58.71032 -12.12078,-10.05935 -18.06204,76.1981 -9.66681,140.34656 2.05967,15.73812 4.15772,30.31903 4.66232,32.40201 1.59376,6.57894 -2.40106,4.25945 -17.30196,-10.04602 z"
   id="path1180" /><path
   style="fill:#000000;stroke:#ffffff;stroke-width:4.59957"
   d="m 555.4255,125.59502 c -14.76596,-3.87735 -28.55391,-15.81931 -34.96869,-30.286972 -5.23075,-11.797214 -5.77758,-29.071302 -1.29609,-40.942741 10.80213,-28.614831 41.89461,-42.147605 67.71006,-29.470318 18.28793,8.980722 29.12099,26.959406 29.13966,48.360538 0.0189,21.685843 -11.25935,39.657253 -30.5899,48.743693 -8.13896,3.82576 -22.54324,5.55254 -29.99504,3.5958 z"
   id="path1219" /><path
   style="fill:#000000;stroke:#ffffff;stroke-width:4.59957"
   d="m 556.51011,208.60268 c -2.18077,-1.56641 -5.03138,-5.4001 -6.33466,-8.51931 -2.00849,-4.80698 -2.02113,-6.505 -0.0829,-11.14176 3.16596,-7.57397 7.19661,-10.44362 14.66887,-10.44362 7.19543,0 12.02365,3.50787 15.12124,10.98611 2.31462,5.58799 0.26565,12.69623 -5.04511,17.5024 -4.60125,4.16408 -13.66716,4.96355 -18.3274,1.61618 z"
   id="path1258" /><path
   style="fill:#000000;stroke:#ffffff;stroke-width:4.59957"
   d="m 661.43613,347.0821 c -32.97089,-34.04058 -50.12768,-92.29143 -42.76793,-145.20605 7.10043,-51.05023 35.63635,-99.00569 73.72691,-123.900267 17.2293,-11.260432 23.01774,-12.80355 31.60139,-8.424497 16.43554,8.38479 36.13828,39.771414 48.26652,76.888984 19.8308,60.69068 10.6872,121.58523 -25.54783,170.14339 -13.07888,17.52687 -38.81497,41.80515 -41.48501,39.1351 -0.40623,-0.40621 1.17075,-13.57482 3.5044,-29.26358 6.02957,-40.53596 7.32799,-88.67348 3.20781,-118.92712 -4.3766,-32.13654 -7.85848,-35.82964 -16.9204,-17.94679 -13.77606,27.18574 -19.30068,59.43894 -20.43303,119.28987 -0.46416,24.53295 -1.52305,45.32483 -2.35309,46.20416 -0.9271,0.98218 -5.09238,-2.10068 -10.79974,-7.9932 z"
   id="path1297" /><path
   style="fill:#000000;stroke:#ffffff;stroke-width:4.59957"
   d="m 547.69804,478.02925 c -11.20223,-3.57321 -22.27725,-14.10626 -28.82075,-27.41038 -4.94425,-10.05257 -5.53137,-12.7717 -5.52334,-25.58053 0.007,-11.89734 0.75129,-15.91817 4.37825,-23.66682 5.77549,-12.3388 12.78482,-20.06191 23.69083,-26.10335 7.94162,-4.39929 10.56879,-4.95945 23.26019,-4.95945 12.71801,0 15.31041,0.55555 23.33656,5.00102 10.27928,5.69341 18.63422,15.06773 24.16582,27.11428 2.99654,6.52575 3.80648,11.32352 3.81943,22.6248 0.0146,12.83554 -0.56585,15.52559 -5.52472,25.59847 -5.78547,11.75198 -14.49808,20.66817 -25.35472,25.94717 -8.0554,3.91691 -27.32952,4.65578 -37.42755,1.43479 z"
   id="path1336" /><path
   style="fill:#000000;stroke:#ffffff;stroke-width:4.59957"
   d="m 441.44803,467.94138 c -27.48662,-9.61137 -42.0034,-21.06329 -51.23072,-40.41461 -5.67233,-11.89587 -12.20914,-36.90138 -10.17764,-38.93289 0.60355,-0.60354 4.3359,0.13946 8.29413,1.65112 21.60686,8.25174 45.28027,28.27424 55.00737,46.52416 6.12752,11.4964 13.81996,32.92608 12.3477,34.39834 -1.3018,1.30181 -1.27361,1.3082 -14.24084,-3.22612 z"
   id="path1375" /><path
   style="fill:#000000;stroke:#ffffff;stroke-width:4.59957"
   d="m 538.25701,746.92953 c -1.9218,-2.54587 -11.99478,-14.4757 -22.3844,-26.51074 -10.41369,-12.06291 -20.77796,-25.9074 -23.09708,-30.85289 -2.56442,-5.4686 -5.13608,-15.65447 -6.58697,-26.08994 -3.59561,-25.86125 -6.83893,-37.35268 -15.79498,-55.96339 C 458.33803,582.46108 446.72984,570.84746 404.38427,541.47239 368.97136,516.9065 269.8458,435.29766 268.79549,429.84383 c -0.76061,-3.94956 2.31465,-4.5024 16.47297,-2.96133 16.62808,1.80989 33.60559,10.2497 58.25879,28.96145 31.20646,23.68566 50.04327,33.18405 90.70631,45.73828 28.76945,8.88224 44.38175,17.43149 59.91378,32.80864 30.47013,30.16632 44.86729,72.49842 48.67031,143.10577 1.96747,36.52849 2.11963,74.06175 0.30024,74.06175 -0.75168,0 -2.93907,-2.08299 -4.86088,-4.62886 z"
   id="path1414" /><path
   style="fill:#000000;stroke:#ffffff;stroke-width:3.25239"
   d="m 583.25403,750.87208 c -1.15649,-3.01377 0.61829,-59.47486 2.55792,-81.37484 4.04091,-45.62506 10.25743,-72.5655 22.63393,-98.08816 10.10566,-20.83979 22.48296,-36.18793 39.17124,-48.57326 12.87708,-9.55681 25.15851,-15.17282 48.93175,-22.37534 43.65092,-13.2248 56.39377,-19.6907 92.12989,-46.748 19.64677,-14.87539 34.39423,-23.29398 46.10711,-26.32028 9.22672,-2.38393 21.7771,-2.48103 24.89284,-0.19259 2.24572,1.64944 2.21047,1.80349 -1.26029,5.5061 -4.46672,4.7651 -61.60212,53.90973 -86.29075,74.2224 -10.1466,8.34815 -27.28573,21.11747 -38.08696,28.37626 -24.68595,16.58981 -30.71109,21.13572 -47.28334,35.67482 -14.46146,12.68727 -21.21788,21.20402 -28.58424,36.03164 -8.3846,16.87723 -13.01024,34.053 -16.34751,60.70109 -2.19782,17.54961 -6.29289,26.62327 -17.99493,39.87228 -4.33638,4.90964 -14.82083,17.09449 -23.29876,27.07744 -8.47794,9.98295 -15.66618,18.15082 -15.97387,18.15082 -0.30769,0 -0.8945,-0.87317 -1.30403,-1.94038 z"
   id="path1453" /><path
   style="fill:#000000;stroke:#ffffff;stroke-width:3.25239"
   d="m 669.76898,470.85632 c 0,-3.61097 5.83279,-19.03114 10.77242,-28.47909 7.48218,-14.31104 14.92967,-23.54993 26.53686,-32.91998 8.99669,-7.26269 35.36139,-22.04151 39.32098,-22.04151 2.63563,0 2.47623,3.33544 -0.9273,19.40459 -3.68065,17.37753 -8.65573,27.6222 -18.48889,38.07231 -9.5563,10.15587 -20.32111,16.62293 -37.40939,22.47403 -12.93603,4.42935 -19.80468,5.63963 -19.80468,3.48965 z"
   id="path1492" /><path
   style="fill:#000000;stroke:#ffffff;stroke-width:3.25239"
   d="m 841.74002,393.34197 c -0.41302,-0.66828 2.97655,-5.89036 7.53238,-11.60462 20.87699,-26.18542 35.0204,-50.85597 39.59449,-69.0652 2.33326,-9.28862 2.36305,-10.05675 0.50026,-12.89973 -2.44054,-3.72473 -5.60802,-3.1968 -13.57574,2.26271 -13.66058,9.36028 -45.77725,44.0691 -69.12892,74.70836 -5.97037,7.83359 -11.35255,14.2429 -11.96039,14.2429 -2.19289,0 -2.50862,-5.99153 -1.2261,-23.26757 2.97933,-40.13277 12.79766,-67.19885 33.95804,-93.61173 16.13316,-20.13779 29.65973,-31.16282 51.4492,-41.93438 27.22988,-13.46103 64.70256,-19.97472 76.11826,-13.23128 11.273,6.6591 15.8381,27.93091 11.8302,55.12366 -9.347,63.41595 -49.51097,106.37453 -110.53836,118.22948 -13.5666,2.6354 -13.57166,2.63576 -14.55332,1.0474 z"
   id="path1531" /><path
   style="fill:#000000;stroke:#ffffff;stroke-width:3.25239"
   d="m 833.19097,189.89204 c -7.84837,-4.78546 -10.22058,-12.32535 -6.51407,-20.70453 4.30687,-9.73639 14.61756,-13.14915 22.93643,-7.59178 11.0646,7.39162 10.32225,22.56418 -1.39636,28.53964 -5.31935,2.7124 -10.31103,2.63156 -15.026,-0.24333 z"
   id="path1570" /><path
   style="fill:#000000;stroke:#ffffff;stroke-width:3.25239"
   d="m 979.5305,400.93106 c -7.8779,-3.8836 -11.2047,-14.61837 -7.0315,-22.68847 6.1799,-11.95058 22.7459,-11.95058 28.9258,0 7.4121,14.33343 -7.4988,29.78519 -21.8943,22.68847 z"
   id="path1609" /><path
   style="fill:#000000;stroke:#ffffff;stroke-width:3.25239"
   d="m 935.18744,587.33217 c -16.35887,-1.68044 -33.71821,-5.69101 -55.94021,-12.92398 -14.14376,-4.60361 -20.82881,-7.32733 -20.82881,-8.48636 0,-1.16349 3.03122,-2.38152 9.52174,-3.82613 48.28241,-10.74634 62.36126,-15.8588 91.99354,-33.40566 12.6226,-7.4745 16.9113,-11.98682 16.9113,-17.79285 0,-5.58428 -4.6216,-7.2246 -18.3345,-6.50729 -13.0031,0.68018 -29.3478,4.86421 -112.92989,28.9087 -21.46243,6.1742 -40.34225,11.22582 -41.95516,11.22582 -4.47277,0 -3.70671,-3.21071 3.14421,-13.17801 30.81896,-44.83798 84.72712,-79.94699 140.53524,-91.52701 33.8754,-7.02905 63.7106,-5.31912 96.0649,5.50575 20.3546,6.81006 41.1749,18.30822 48.1397,26.58549 5.3806,6.39447 6.1582,11.35841 3.1746,20.26565 -12.505,37.33199 -52.5794,74.78002 -94.6298,88.42778 -19.0338,6.17756 -44.5063,8.8196 -64.86686,6.7281 z"
   id="path1648" /><path
   style="fill:#000000;stroke:#ffffff;stroke-width:3.25239"
   d="m 1034.0489,656.61044 c -11.6415,-6.24337 -10.8656,-23.12052 1.3552,-29.479 6.4309,-3.34597 13.5058,-1.31897 19.2584,5.51764 6.1847,7.35012 3.0053,20.74461 -5.7971,24.4225 -5.4965,2.29656 -9.9319,2.15851 -14.8165,-0.46114 z"
   id="path1687" /><path
   style="fill:#000000;stroke:#ffffff;stroke-width:3.25239"
   d="m 588.44816,1043.6329 c -1.79821,-1.7982 0.08,-117.91909 2.81103,-173.79048 1.42619,-29.17713 3.35724,-42.81606 8.35893,-59.03857 8.958,-29.05447 23.62515,-52.0139 48.87929,-76.51387 32.96459,-31.98013 65.66784,-47.73148 107.77266,-51.90811 19.82892,-1.96695 38.034,-0.22235 77.7489,7.4507 44.28632,8.55627 57.13043,8.2908 57.13043,-1.18079 0,-5.14447 -7.31972,-10.94417 -24.11054,-19.10374 -50.32534,-24.45579 -101.94069,-30.76565 -156.20738,-19.09598 -19.62993,4.22127 -20.82881,4.30078 -20.82881,1.38141 0,-3.8138 13.99926,-21.34278 23.28446,-29.15534 21.56695,-18.14638 45.35397,-25.78414 80.30208,-25.78414 35.89901,0 75.32292,10.68925 116.60367,31.61549 47.01202,23.83156 93.30862,65.76032 89.87452,81.39539 -1.9734,8.9848 -23.4195,23.18414 -46.7619,30.96077 -18.65369,6.21459 -28.66578,7.73517 -50.84904,7.7227 -26.84692,-0.0151 -38.34245,-2.36596 -81.23743,-16.61335 -20.16653,-6.69824 -37.49806,-11.73543 -43.29434,-12.58294 -23.25837,-3.40084 -47.57986,3.36613 -68.92505,19.17702 -10.37653,7.68612 -28.83811,26.98098 -36.45368,38.09905 -12.70656,18.55045 -21.74513,40.319 -26.52367,63.87971 -7.51703,37.06289 -4.94874,104.99345 5.07529,134.24016 9.3931,27.40581 26.53322,47.28001 52.92948,61.37221 4.88958,2.6105 7.356,4.6273 7.12516,5.8264 -0.31154,1.6185 -7.4955,1.8702 -61.12646,2.1422 -33.42539,0.1696 -61.13531,-0.054 -61.5776,-0.4959 z"
   id="path1726" /><path
   style="fill:#000000;stroke:#ffffff;stroke-width:3.25239"
   d="m 826.28256,838.65415 c -18.91474,-4.67481 -27.26778,-10.18844 -52.40356,-34.59029 -10.49261,-10.18623 -21.6364,-20.87371 -24.76396,-23.74994 -3.80221,-3.49666 -5.29093,-5.62508 -4.49274,-6.42327 1.7679,-1.76791 16.29917,-4.32129 24.87756,-4.37141 11.41534,-0.0667 24.7245,3.12216 35.95389,8.61445 8.02647,3.92575 12.232,7.04691 20.35362,15.10557 10.6845,10.60169 15.94714,18.68009 22.46363,34.48273 5.36378,13.0073 5.29594,13.18376 -5.02785,13.07893 -4.74599,-0.0482 -12.37826,-1.01424 -16.96059,-2.14677 z"
   id="path1765" /></svg>
