<svg xmlns="http://www.w3.org/2000/svg" viewBox="0 0 1152 1071" role="img" aria-label="PSYKE">
<path
   fill="#6d5ba6"
   opacity="1"
   stroke="none"
   d="m 705.31042,694.29755 c 34.12531,-14.51001 69.07178,-16.19007 104.73218,-9.67975 19.32154,3.52746 38.56055,7.52838 57.92896,10.76391 5.44641,0.90985 11.31201,0.44605 16.81811,-0.4339 6.39356,-1.02185 8.16584,-6.72241 3.79151,-11.4953 -2.3133,-2.5241 -5.30512,-4.57739 -8.3028,-6.29992 -30.47436,-17.51087 -63.35663,-27.48596 -98.224,-31.31561 -29.28137,-3.21619 -57.72253,1.5899 -86.00085,8.43408 -2.4347,0.58929 -5.06561,0.36773 -7.60541,0.52288 0.80554,-2.52966 1.1131,-5.37646 2.49176,-7.54101 18.86652,-29.62091 46.37073,-45.76733 80.7522,-50.17194 34.48462,-4.4179 67.66003,2.48938 99.93841,14.03302 43.0531,15.39679 81.66611,38.16681 113.84171,71.05646 4.1646,4.25714 7.9021,9.04529 11.2057,14.00788 6.3498,9.53851 5.8692,17.05694 -3.1542,24.15466 -8.1497,6.41034 -17.1879,12.20349 -26.6832,16.30139 -39.35869,16.98602 -79.72276,16.55725 -120.21934,4.48877 -16.90217,-5.03699 -33.41932,-11.354 -50.17304,-16.90314 -37.86481,-12.54162 -70.2395,-1.74628 -98.47882,24.22602 -35.43854,32.59375 -52.5387,73.78027 -55.07471,121.41461 -1.46393,27.49664 -1.00299,54.95593 3.22248,82.20764 5.83227,37.61487 24.53167,66.3868 58.9779,84.0098 1.92706,0.9859 4.00482,1.7935 5.6828,3.1056 0.98902,0.7733 2.00043,2.5307 1.76532,3.5643 -0.22363,0.9831 -1.96063,1.891 -3.20642,2.2957 -1.20886,0.3926 -2.63916,0.1127 -3.97223,0.1126 -37.3277,0 -74.65546,-0.01 -111.98315,-0.014 -6.56928,0 -7.02192,-0.759 -6.86542,-7.1841 0.42163,-17.3205 0.52032,-34.6485 0.88006,-51.97067 0.58075,-27.96881 1.11158,-55.94018 1.96491,-83.9013 0.57349,-18.78876 1.03082,-37.61707 2.66077,-56.33014 3.36462,-38.62751 18.72387,-72.20154 44.83545,-100.81122 19.3966,-21.25238 41.30163,-39.19251 68.45336,-50.64752 z"
   id="path4" />
<path
   fill="#6d5ba6"
   opacity="1"
   stroke="none"
   d="m 154.22934,671.23029 c 42.87887,-37.03467 91.42151,-61.86829 147.02499,-71.86188 25.89255,-4.65369 51.92344,-6.08289 77.56281,2.33343 25.76877,8.45881 45.88519,23.85425 59.06137,47.80652 0.7851,1.42713 0.79224,3.28223 1.16138,4.93817 -1.73529,0.12 -3.5437,0.61884 -5.19431,0.30023 -13.22153,-2.55236 -26.33932,-5.72808 -39.62906,-7.82415 -30.2875,-4.77698 -60.08725,-1.39496 -89.43918,6.75012 -20.59863,5.716 -40.63705,12.90088 -59.04535,24.01929 -2.40402,1.45196 -4.86868,3.03411 -6.75549,5.0664 -4.66153,5.02088 -3.33545,10.64582 3.31204,12.04932 5.41602,1.14349 11.34198,1.52368 16.77677,0.63013 19.70163,-3.23944 39.27292,-7.2616 58.9277,-10.79786 35.99405,-6.47595 71.29392,-4.78711 105.43955,9.46662 25.56762,10.67291 46.57226,27.71417 65.39764,47.58301 23.70917,25.02325 39.72992,54.32043 45.41339,88.45825 2.58411,15.5216 3.36798,31.42853 3.86078,47.19525 1.08771,34.79858 1.43317,69.62006 2.16071,104.43048 0.39312,18.80988 0.98895,37.61538 1.40966,56.42488 0.14307,6.3945 -0.50738,6.946 -6.69836,6.9468 -37.66449,0 -75.32898,0.01 -112.99344,0.015 -0.83328,10e-5 -1.77954,0.2539 -2.47714,-0.054 -1.62067,-0.7156 -3.12137,-1.7028 -4.67072,-2.5798 1.04489,-1.3017 1.83512,-3.0324 3.17908,-3.8302 5.5762,-3.3105 11.52655,-6.0181 16.96686,-9.5252 28.40301,-18.3102 43.09924,-45.30522 47.60937,-78.02384 4.83991,-35.10993 6.20429,-70.48829 0.24427,-105.53376 -8.35346,-49.11871 -32.818,-88.25067 -76.03248,-114.38855 -22.73181,-13.74914 -47.12704,-15.53991 -72.22814,-7.56219 -18.0896,5.74921 -35.83323,12.64947 -54.06101,17.88885 -43.45407,12.49024 -86.27701,11.66944 -127.39575,-9.03912 -7.03528,-3.54315 -13.55156,-8.52173 -19.46396,-13.78485 -7.06349,-6.28797 -8.15668,-13.48297 -2.54848,-21.0127 6.90999,-9.27752 15.17943,-17.54254 23.1245,-26.48455 z"
   id="path6" />
<path
   fill="#6d5ba6"
   opacity="1"
   stroke="none"
   d="m 779.53003,248.4989 c -10.82501,44.50516 -34.50214,80.0867 -70.57721,107.47995 -1.26947,0.96393 -3.15784,1.11289 -4.75775,1.64163 -0.17969,-1.69699 -0.77387,-3.47003 -0.47852,-5.07989 7.25952,-39.57163 11.59155,-79.44272 10.07251,-119.68344 -0.58667,-15.54135 -3.69873,-30.98737 -5.66186,-46.4766 -0.0209,-0.16488 -0.0258,-0.34745 -0.10157,-0.48738 -1.28894,-2.37834 -2.58795,-4.75122 -3.88476,-7.1253 -1.84876,1.92154 -4.18787,3.56314 -5.46942,5.80842 -11.34278,19.8718 -16.35053,41.77072 -19.69818,64.08803 -5.18219,34.54796 -5.09101,69.35787 -4.59327,104.17494 0.0216,1.5127 -0.7044,3.03611 -1.08209,4.55451 -1.53277,-0.65418 -3.35717,-0.97214 -4.55542,-2.01181 -26.96686,-23.39755 -41.38324,-53.84455 -48.39984,-88.10172 -9.58954,-46.81944 -2.81757,-91.49663 19.97681,-133.4386 14.18078,-26.09284 33.80932,-47.343952 59.89703,-62.159946 14.68958,-8.342693 22.29212,-7.468803 34.34351,4.349854 11.57708,11.353393 19.6817,25.128052 26.56543,39.635392 14.677,30.93134 23.55615,63.32641 22.5982,97.78925 -0.32178,11.57675 -2.651,23.09773 -4.1936,35.04271 z"
   id="path8" />
<path
   fill="#6d5ba6"
   opacity="1"
   stroke="none"
   d="m 493.85474,145.13544 c 13.52948,30.08647 19.41595,61.33049 16.87091,93.75451 -3.2779,41.76172 -16.25476,79.78379 -46.61969,110.25327 -2.58216,2.59103 -5.35004,5.01529 -8.19428,7.31586 -0.89502,0.72393 -2.63409,1.39669 -3.42114,0.99218 -0.84326,-0.43344 -1.43665,-2.17056 -1.41943,-3.32797 0.11401,-7.65649 0.5849,-15.30896 0.63836,-22.96481 0.23401,-33.49594 -0.1853,-66.96833 -6.6477,-100.00737 -3.20764,-16.39896 -7.72525,-32.42525 -16.33249,-46.94911 -1.23853,-2.08989 -3.56867,-3.53286 -5.39365,-5.2752 -1.26657,2.21295 -3.22461,4.2927 -3.68106,6.66173 -2.07388,10.76418 -4.42663,21.54697 -5.40225,32.43744 -3.58533,40.02243 -0.58554,79.81256 5.33713,119.44287 0.73751,4.93497 1.60513,9.85422 2.18057,14.80771 0.20428,1.75854 -0.2814,3.59729 -0.60068,6.9678 -3.87683,-3.20984 -6.54159,-5.35772 -9.14346,-7.57931 -29.88886,-25.52048 -51.33124,-56.61554 -61.82651,-94.73541 -9.45181,-34.32972 -7.65561,-68.47931 2.50842,-102.38732 7.77091,-25.92436 18.64261,-50.2818 36.69101,-70.811673 4.46009,-5.073281 9.81076,-9.489464 15.24366,-13.549965 6.88739,-5.147637 14.46362,-5.179268 22.13708,-1.255226 16.79709,8.58963 30.11029,21.232048 41.93665,35.662244 10.09124,12.31302 18.20788,25.83858 25.13855,40.54775 z"
   id="path10" />
<path
   fill="#6d5ba6"
   opacity="1"
   stroke="none"
   d="m 255.18097,525.8197 c -24.78888,-6.78595 -49.12363,-13.73285 -73.63905,-19.96939 -6.6567,-1.69342 -13.85199,-1.4855 -20.81325,-1.68051 -3.85291,-0.10794 -7.98244,0.73099 -9.53539,4.98819 -1.54828,4.24442 0.94467,7.86178 4.02094,10.01138 8.43266,5.89252 16.91314,11.90222 26.02757,16.59839 26.30054,13.55103 54.73212,20.65521 83.61615,26.14307 1.7966,0.34137 3.67206,0.4754 5.36212,1.10498 1.37476,0.51214 2.52643,1.62311 3.77701,2.4685 -0.9917,0.97644 -1.81097,2.42749 -3.00043,2.85968 -27.28415,9.91352 -54.85879,18.35022 -84.19702,19.93439 -45.19202,2.44006 -84.274,-11.4176 -117.04712,-42.60657 -14.21813,-13.53088 -26.33854,-28.76373 -34.29041,-46.90042 -2.589539,-5.90622 -5.126572,-12.01034 -3.383378,-18.79587 1.87867,-7.31286 7.201818,-11.88635 13.018128,-15.85806 21.42364,-14.62924 45.30201,-23.04123 70.77804,-27.00491 50.73572,-7.89371 96.59854,6.44662 139.81174,31.62241 28.85409,16.81024 52.30426,39.43844 69.6668,68.11154 1.44846,2.39202 1.97379,5.34301 2.92801,8.0343 -2.98202,-0.0925 -6.13513,0.41748 -8.91885,-0.37317 -21.30563,-6.05133 -42.53937,-12.35584 -64.18161,-18.68793 z"
   id="path12" />
<path
   fill="#6d5ba6"
   opacity="1"
   stroke="none"
   d="m 1036.5366,442.41321 c 17.4157,5.14209 33.6113,11.97378 48.1309,22.36798 12.7984,9.16202 15.5444,17.37933 9.2812,31.8985 -12.9518,30.02453 -34.3707,52.93304 -61.9288,69.9834 -24.9657,15.44653 -52.557,22.37207 -81.8464,22.04614 -20.94315,-0.23303 -41.34892,-4.24243 -61.32322,-10.40631 -9.69775,-2.99262 -19.33575,-6.18927 -28.92517,-9.5119 -1.47339,-0.51056 -2.53784,-2.20136 -3.79138,-3.34632 1.45068,-0.86365 2.80408,-2.19745 4.36658,-2.52087 25.28161,-5.23371 50.68145,-10.21735 74.26641,-21.15412 11.12758,-5.16009 21.63558,-11.68365 32.27898,-17.84069 2.5341,-1.46601 4.9797,-3.61609 6.5664,-6.04035 1.5959,-2.43829 3.5241,-6.21502 2.656,-8.30325 -1.0082,-2.4249 -4.8396,-5.0116 -7.5525,-5.13254 -7.0838,-0.31583 -14.5026,-0.40491 -21.2957,1.33591 -26.59599,6.81552 -53.0319,14.26645 -79.46854,21.69052 -20.35383,5.71576 -40.61982,11.74469 -60.92524,17.63312 -0.47998,0.13922 -0.96679,0.38409 -1.44616,0.3742 -2.06879,-0.0428 -4.13611,-0.16235 -6.20392,-0.2539 0.4649,-1.9748 0.47845,-4.21558 1.46203,-5.88471 15.97315,-27.10553 38.27912,-48.08816 64.21057,-65.37823 32.28894,-21.52881 67.72223,-34.81592 106.42856,-38.47644 21.9103,-2.07206 43.5329,0.59485 65.0594,6.91986 z"
   id="path14" />
<path
   fill="#6d5ba6"
   opacity="1"
   stroke="none"
   d="m 372.32996,520.66431 c -28.31324,-23.81702 -56.36429,-47.39157 -84.37458,-71.01453 -6.23895,-5.26175 -12.43106,-10.58871 -18.42926,-16.11935 -1.53314,-1.4137 -2.24362,-3.71961 -3.33206,-5.61561 1.94412,-1.08663 3.9473,-3.19204 5.82211,-3.08337 8.051,0.46668 16.36399,0.51929 24.03153,2.67716 18.43197,5.18731 33.96478,16.08285 48.52264,28.08309 27.13227,22.36551 58.03974,36.805 91.83643,45.64853 31.11319,8.14133 56.7626,24.3285 74.72317,51.55628 11.40308,17.28686 18.93689,36.24481 23.75147,56.30798 5.37457,22.39698 8.24841,45.1546 9.05316,68.15424 0.82684,23.62713 1.43219,47.26239 2.00531,70.89721 0.0435,1.79255 -0.94305,3.61005 -1.45081,5.41596 -1.6217,-1.13983 -3.57104,-2.00092 -4.81475,-3.4624 -13.15931,-15.46302 -25.79151,-31.39795 -39.42768,-46.42371 -9.31628,-10.26568 -12.96771,-22.15002 -14.33068,-35.34436 -1.90577,-18.44769 -5.30604,-36.56311 -12.52851,-53.78808 -9.89746,-23.60468 -26.07696,-42.0478 -46.84125,-56.59516 -17.86685,-12.51745 -35.95117,-24.72455 -54.21624,-37.29388 z"
   id="path16" />
<path
   fill="#6d5ba6"
   opacity="1"
   stroke="none"
   d="m 676.0863,581.10504 c -18.7359,21.43433 -27.91284,46.63879 -32.04168,73.99677 -0.91877,6.08807 -1.70362,12.20941 -2.21582,18.34332 -1.12647,13.48828 -7.76691,23.92194 -16.69129,33.73266 -12.98626,14.27595 -25.10589,29.33906 -37.68182,43.99201 -0.94769,1.10419 -2.58746,1.61432 -3.90552,2.40063 -0.5697,-1.43457 -1.6579,-2.87799 -1.63336,-4.30236 0.66162,-38.44733 1.51788,-76.90515 7.26062,-115.01221 3.71429,-24.64661 10.31018,-48.52728 22.2782,-70.58978 17.65258,-32.54163 44.77398,-53.02475 80.41546,-62.55637 27.81348,-7.43814 54.71558,-17.07361 78.24488,-34.25824 10.48382,-7.65683 20.45709,-16.02179 31.04748,-23.52115 13.56934,-9.60879 28.20258,-17.10055 45.11621,-18.77228 3.42731,-0.33877 6.99933,-0.23281 10.38074,0.36655 2.02673,0.35925 3.81335,2.07294 5.70789,3.17783 -1.02832,1.7594 -1.69538,3.92389 -3.14216,5.21396 -11.31408,10.08825 -22.65069,20.15884 -34.22229,29.94897 -22.88439,19.3613 -45.49261,39.08835 -69.05389,57.59616 -15.28668,12.008 -32.38965,21.67688 -48.05151,33.24329 -11.06958,8.17498 -21.08795,17.77337 -31.81214,27.00024 z"
   id="path18" />
<path
   fill="#6d5ba6"
   opacity="1"
   stroke="none"
   d="m 839.45044,258.44492 c 25.89618,-24.27793 56.47833,-37.74956 91.08148,-42.4088 5.04157,-0.67882 10.25048,-0.5226 15.35458,-0.24651 11.5027,0.62225 17.398,7.74297 20.3595,18.15282 3.6303,12.76088 3.2675,25.6761 1.6372,38.62913 -3.3316,26.46805 -12.5042,50.62729 -28.9835,71.77482 -17.81547,22.86236 -41.20189,37.51733 -68.79533,45.52999 -8.26154,2.39902 -16.88379,3.58902 -25.38037,5.11185 -1.39246,0.24954 -2.99085,-0.64938 -4.49402,-1.01752 0.58392,-1.44397 0.85889,-3.13907 1.79797,-4.29437 15.26001,-18.77389 29.93567,-37.99301 40.43097,-59.90494 3.54126,-7.39331 5.97626,-15.55542 7.44495,-23.63379 1.40961,-7.75344 -3.05688,-10.51199 -9.76642,-6.22006 -6.39947,4.0936 -12.46441,8.94666 -17.91205,14.25086 -23.68744,23.06363 -44.55188,48.58007 -64.21863,75.10748 -0.88397,1.19229 -2.43627,1.88916 -3.67718,2.81677 -0.73309,-1.32431 -2.09674,-2.64358 -2.1073,-3.97369 -0.28149,-35.31821 4.90234,-69.50705 23.9118,-100.05905 6.53662,-10.50568 15.31312,-19.61768 23.31635,-29.61499 z"
   id="path20" />
<path
   fill="#6d5ba6"
   opacity="1"
   stroke="none"
   d="m 308.33289,361.67969 c -16.17212,-19.95688 -32.34491,-39.44077 -51.91593,-55.72113 -3.4198,-2.84485 -7.28387,-5.33332 -11.29736,-7.23996 -4.56949,-2.17078 -7.9754,0.23297 -7.96079,5.35363 0.0275,9.61796 3.99112,18.14246 8.22028,26.45682 10.70569,21.04712 24.9375,39.72412 39.58844,58.10074 0.10385,0.13022 0.24948,0.24091 0.31244,0.38776 0.73474,1.71463 1.4574,3.43445 2.18323,5.15289 -1.70759,0.27646 -3.52851,1.08145 -5.10428,0.74344 -10.05927,-2.15778 -20.39862,-3.62656 -30.03263,-7.04849 -56.54861,-20.08557 -86.1192,-61.61368 -93.2622,-120.06021 -1.17174,-9.58756 -0.85624,-19.70612 0.82005,-29.21834 3.28632,-18.64847 12.84889,-25.25232 31.84256,-23.3037 40.65437,4.17084 75.41023,20.71535 103.48592,50.58506 20.35366,21.65423 32.14767,47.73913 36.42199,76.85308 2.2067,15.03061 1.81079,30.448 2.43497,45.69702 0.0486,1.18598 -1.13568,2.42234 -1.74695,3.63529 -1.16028,-0.74906 -2.6564,-1.24835 -3.42819,-2.28629 -6.85248,-9.21524 -13.57678,-18.52588 -20.56155,-28.08761 z"
   id="path22" />
<path
   fill="#6d5ba6"
   opacity="1"
   stroke="none"
   d="m 515.8288,402.922 c 6.02307,-14.04972 15.11615,-24.75467 29.14361,-30.52164 21.969,-9.03186 45.75885,-2.50967 60.36756,16.31067 15.71655,20.24753 16.5885,50.24142 1.80383,70.49603 -11.42945,15.6579 -26.93237,24.11218 -46.39362,22.37204 -21.62018,-1.93304 -36.60492,-13.87481 -44.86938,-34.01294 -6.03967,-14.71722 -5.88269,-29.49591 -0.052,-44.64416 z"
   id="path24" />
<path
   fill="#6d5ba6"
   opacity="1"
   stroke="none"
   d="m 560.3551,19.046284 c 30.06116,-2.750922 52.67206,19.266285 56.50727,46.332569 4.057,28.632286 -14.03382,55.142207 -41.08899,61.060337 -22.10962,4.83634 -44.49225,-6.61834 -55.18982,-28.244404 -13.92347,-28.147346 -2.03595,-62.962593 25.93036,-75.34227 4.19751,-1.858105 8.90832,-2.556877 13.84118,-3.806232 z"
   id="path26" />
<path
   fill="#6d5ba6"
   opacity="1"
   stroke="none"
   d="m 756.84582,788.14111 c -3.95446,-3.3468 -7.73382,-6.36145 -11.27355,-9.63519 -1.20545,-1.11475 -1.80793,-2.88147 -2.68592,-4.35022 1.36682,-0.76703 2.64618,-1.86749 4.11328,-2.25238 38.50238,-10.10138 75.92377,5.83337 95.03284,40.75635 3.97296,7.26086 7.01788,15.06354 10.06628,22.78406 1.9491,4.93646 0.76423,6.30572 -4.54333,6.3388 -23.98499,0.14978 -44.52216,-8.36883 -61.70978,-24.95312 -9.69946,-9.35895 -19.1618,-18.96369 -28.99982,-28.6883 z"
   id="path28" />
<path
   fill="#6d5ba6"
   opacity="1"
   stroke="none"
   d="m 303.9809,839.04797 c -8.13111,0.97284 -15.85334,1.95032 -23.59769,2.69971 -3.78601,0.36639 -5.23642,-1.59405 -4.14374,-5.25623 15.70746,-52.64349 58.5972,-76.45544 106.14752,-64.41967 3.02588,0.76593 4.88584,2.19055 1.90613,5.03552 -15.63852,14.93188 -31.19836,29.95178 -47.09393,44.60663 -9.32294,8.59527 -20.5412,14.04034 -33.21829,17.33404 z"
   id="path30" />
<path
   fill="#6d5ba6"
   opacity="1"
   stroke="none"
   d="m 745.13965,412.1326 c -6.46716,28.69733 -25.18549,45.36249 -51.50812,54.7457 -6.10858,2.17752 -12.35388,4.0054 -18.61127,5.7207 -5.14648,1.41077 -6.55328,-0.0334 -5.18866,-5.15689 8.09992,-30.41104 25.0625,-54.17707 52.8227,-69.63468 6.96881,-3.88043 14.2243,-7.27105 21.4757,-10.60955 4.28461,-1.9726 6.00471,-0.54789 5.17084,3.99209 -1.26098,6.866 -2.69757,13.69977 -4.16119,20.94263 z"
   id="path32" />
<path
   fill="#6d5ba6"
   opacity="1"
   stroke="none"
   d="m 452.53094,454.48605 c 1.59754,5.13538 3.18537,9.87226 4.4516,14.69364 0.81818,3.11523 -0.6441,4.50885 -3.81494,3.57986 -16.02298,-4.69415 -31.66821,-10.19812 -45.27612,-20.32721 -14.47431,-10.77395 -20.93936,-26.30105 -25.59036,-42.86233 -1.65845,-5.90543 -2.77314,-11.97544 -3.90158,-18.01413 -0.95649,-5.11853 0.43628,-6.21289 5.25878,-4.38422 32.60087,12.36209 57.00916,33.14661 68.87262,67.31439 z"
   id="path34" />
<path
   fill="#6d5ba6"
   opacity="1"
   stroke="none"
   d="m 993.2617,369.45429 c 8.6172,4.66857 12.188,11.62371 10.676,20.27365 -1.185,6.77987 -7.3148,12.57919 -14.8106,13.50872 -7.0457,0.87369 -12.859,-1.81475 -16.6165,-7.77237 -3.8563,-6.11431 -3.803,-12.76898 0.029,-18.86517 3.7097,-5.90204 9.3689,-8.77631 16.4915,-8.18365 1.3085,0.10888 2.5871,0.5747 4.2308,1.03882 z"
   id="path36" />
<path
   fill="#6d5ba6"
   opacity="1"
   stroke="none"
   d="m 139.63556,368.50217 c 7.6802,-0.63999 13.49333,2.11612 17.23219,8.33337 3.38048,5.62134 3.60846,11.67026 0.44757,17.57336 -3.60217,6.72721 -10.4759,9.85752 -18.56408,8.62348 -6.4414,-0.98273 -12.1261,-6.72534 -13.53988,-13.67777 -1.46167,-7.18786 1.80713,-14.88189 8.04247,-18.42181 1.84404,-1.04688 3.98808,-1.56531 6.38173,-2.43063 z"
   id="path38" />
<path
   fill="#6d5ba6"
   opacity="1"
   stroke="none"
   d="m 828.15832,164.23029 c 6.63038,-6.50222 13.51935,-7.88645 20.64936,-4.37568 6.70782,3.30288 10.14728,10.19947 9.16473,18.37677 -0.84179,7.00556 -6.12701,12.61034 -13.48663,14.30208 -6.16419,1.41696 -13.55988,-1.4245 -17.211,-6.61246 -4.49115,-6.3816 -4.25561,-14.22811 0.88354,-21.69071 z"
   id="path40" />
<path
   fill="#6d5ba6"
   opacity="1"
   stroke="none"
   d="m 281.64331,191.65909 c -12.53186,-6.73632 -14.41962,-22.48484 -3.96945,-30.27573 6.42731,-4.79179 14.98843,-4.50488 21.2391,0.71179 6.01303,5.01836 7.875,14.32319 4.27408,21.35909 -3.66955,7.17003 -11.43478,10.74359 -19.2521,8.85676 -0.64692,-0.15614 -1.28882,-0.33302 -2.29163,-0.65191 z"
   id="path42" />
<path
   fill="#6d5ba6"
   opacity="1"
   stroke="none"
   d="m 577.82294,205.71515 c -6.88391,6.79262 -14.78443,8.04292 -21.92401,3.72201 -6.41736,-3.8838 -9.77881,-12.86001 -7.50971,-20.05323 2.41919,-7.66898 9.55243,-12.7397 17.38294,-12.31191 12.1939,0.6662 21.68902,15.60045 12.05078,28.64313 z"
   id="path44" />
<path
   fill="#6d5ba6"
   opacity="1"
   stroke="none"
   d="m 1050.438,627.32788 c 6.8933,4.99146 9.6849,11.39887 7.7079,19.33295 -1.6532,6.63543 -6.0213,10.93536 -12.8419,12.48736 -6.8171,1.55121 -13.7717,-1.31909 -17.672,-7.29748 -3.9336,-6.0293 -3.539,-14.79236 0.9274,-20.59162 4.1557,-5.39563 11.8437,-7.72314 18.3676,-5.51873 1.0956,0.37005 2.1305,0.91937 3.511,1.58752 z"
   id="path46" />
<path
   fill="#6d5ba6"
   opacity="1"
   stroke="none"
   d="m 96.16293,627.66528 c 6.95085,4.85572 9.15471,11.51685 7.42836,18.99976 -1.55545,6.74213 -6.17618,11.18445 -13.3043,12.59686 -6.70345,1.32825 -13.88953,-1.79724 -17.47652,-7.77209 -3.95247,-6.58368 -3.33936,-14.83625 1.51895,-20.44593 5.02024,-5.79663 12.18297,-7.6806 18.85707,-4.93048 0.91725,0.37793 1.77823,0.8924 2.97644,1.55188 z"
   id="path48" />
</svg>
